<?xml version="1.0" encoding="iso-8859-1"?>
<!-- Generator: Adobe Illustrator 19.0.0, SVG Export Plug-In . SVG Version: 6.00 Build 0)  -->
<svg version="1.1" id="Capa_1" xmlns="http://www.w3.org/2000/svg" xmlns:xlink="http://www.w3.org/1999/xlink" x="0px" y="0px"
	 viewBox="0 0 320 320" style="enable-background:new 0 0 320 320;" xml:space="preserve">
<g id="XMLID_2138_">
	<rect id="XMLID_2139_" x="70" style="fill:#818085;" width="70" height="30"/>
	<polygon id="XMLID_2140_" style="fill:#DEDDE0;" points="100,110 140,110 140,74.763 36.14,74.763 18.248,264.643 73.571,264.643 
		140,264.643 140,190 100,190 	"/>
	<polygon id="XMLID_2141_" style="fill:#818085;" points="73.571,264.643 18.248,264.643 7.143,264.643 7.143,320 73.571,320 	"/>
	<polygon id="XMLID_2142_" style="fill:#565659;" points="73.571,320 140,320 140,265 140,264.643 73.571,264.643 	"/>
	<polygon id="XMLID_2143_" style="fill:#CDCDD0;" points="140,30 70,30 40.357,30 36.139,74.763 36.14,74.763 140,74.763 	"/>
	<rect id="XMLID_2144_" x="180" style="fill:#565659;" width="70" height="30"/>
	<polygon id="XMLID_2145_" style="fill:#DEDDE0;" points="301.752,264.643 283.86,74.763 180,74.763 180,110 220,110 220,190 
		180,190 180,264.643 246.429,264.643 	"/>
	<polygon id="XMLID_2146_" style="fill:#818085;" points="301.752,264.643 246.429,264.643 246.429,320 312.857,320 
		312.857,264.643 	"/>
	<polygon id="XMLID_2147_" style="fill:#565659;" points="246.429,264.643 180,264.643 180,265 180,320 246.429,320 	"/>
	<polygon id="XMLID_2148_" style="fill:#CDCDD0;" points="283.861,74.763 279.643,30 250,30 180,30 180,74.763 283.86,74.763 	"/>
	<polygon id="XMLID_2149_" style="fill:#818085;" points="125,165 125,135 160,135 160,110 140,110 100,110 100,190 140,190 
		160,190 160,165 	"/>
	<polygon id="XMLID_2150_" style="fill:#565659;" points="220,110 180,110 160,110 160,135 195,135 195,165 160,165 160,190 
		180,190 220,190 	"/>
	<polygon id="XMLID_2151_" style="fill:#DEDDE0;" points="125,135 125,165 160,165 195,165 195,135 160,135 	"/>
</g>
<g>
</g>
<g>
</g>
<g>
</g>
<g>
</g>
<g>
</g>
<g>
</g>
<g>
</g>
<g>
</g>
<g>
</g>
<g>
</g>
<g>
</g>
<g>
</g>
<g>
</g>
<g>
</g>
<g>
</g>
</svg>
